<?xml version="1.0" standalone="no"?>
<!DOCTYPE svg PUBLIC "-//W3C//DTD SVG 1.1//EN" 
  "http://www.w3.org/Graphics/SVG/1.1/DTD/svg11.dtd">
<svg width="1024" height="1024" viewBox="0 0 1024 1024"
     xmlns="http://www.w3.org/2000/svg" version="1.1">
<desc>farm.blend, (Blender 4.1.0)</desc>
<polygon stroke="black" stroke-width="1" fill="rgb(204, 204, 204)" fill-opacity="0.25" points="526.343,384.535 526.343,659.972 544.544,659.973 544.544,384.536 " />
<polygon stroke="black" stroke-width="1" fill="rgb(204, 204, 204)" fill-opacity="0.25" points="399.641,102.755 308.634,102.755 308.634,377.851 399.641,377.851 " />
<polygon stroke="black" stroke-width="1" fill="rgb(204, 204, 204)" fill-opacity="0.25" points="954.354,841.957 954.354,750.986 936.182,751.016 936.182,841.986 " />
<polygon stroke="black" stroke-width="1" fill="rgb(204, 204, 204)" fill-opacity="0.25" points="182.014,102.432 182.014,377.852 273.021,377.852 273.021,102.432 " />
<polygon stroke="black" stroke-width="1" fill="rgb(204, 204, 204)" fill-opacity="0.25" points="291.222,377.851 291.222,102.414 273.021,102.415 273.021,377.852 " />
<polygon stroke="black" stroke-width="1" fill="rgb(204, 204, 204)" fill-opacity="0.25" points="656.682,93.928 656.682,184.898 674.854,184.928 674.854,93.957 " />
<polygon stroke="black" stroke-width="1" fill="rgb(204, 204, 204)" fill-opacity="0.25" points="638.511,370.537 674.163,377.659 674.165,192.050 638.511,184.928 " />
<polygon stroke="black" stroke-width="1" fill="rgb(204, 204, 204)" fill-opacity="0.25" points="854.307,748.580 854.307,712.178 845.206,712.178 845.206,748.580 " />
<polygon stroke="black" stroke-width="1" fill="rgb(204, 204, 204)" fill-opacity="0.25" points="914.892,202.670 914.892,19.693 905.806,19.605 905.806,202.581 " />
<polygon stroke="black" stroke-width="1" fill="rgb(204, 204, 204)" fill-opacity="0.25" points="836.105,675.772 836.105,712.176 845.206,712.176 845.206,675.773 " />
<polygon stroke="black" stroke-width="1" fill="rgb(204, 204, 204)" fill-opacity="0.25" points="878.491,19.694 878.491,202.670 887.577,202.581 887.577,19.605 " />
<polygon stroke="black" stroke-width="1" fill="rgb(204, 204, 204)" fill-opacity="0.25" points="490.650,467.216 526.342,460.078 526.342,274.460 490.648,281.599 " />
<polygon stroke="black" stroke-width="1" fill="rgb(204, 204, 204)" fill-opacity="0.25" points="529.302,102.222 529.302,377.658 547.504,377.659 547.504,102.222 " />
<polygon stroke="black" stroke-width="1" fill="rgb(204, 204, 204)" fill-opacity="0.25" points="490.648,102.755 399.641,102.755 399.641,377.851 490.648,377.851 " />
<polygon stroke="black" stroke-width="1" fill="rgb(204, 204, 204)" fill-opacity="0.25" points="954.354,750.957 954.354,659.986 936.183,660.016 936.183,750.986 " />
<polygon stroke="black" stroke-width="1" fill="rgb(204, 204, 204)" fill-opacity="0.25" points="827.004,748.580 827.004,1024.000 918.011,1024.000 918.011,748.580 " />
<polygon stroke="black" stroke-width="1" fill="rgb(204, 204, 204)" fill-opacity="0.25" points="960.366,384.683 960.366,109.246 942.165,109.247 942.165,384.683 " />
<polygon stroke="black" stroke-width="1" fill="rgb(204, 204, 204)" fill-opacity="0.25" points="674.854,93.928 674.854,184.898 693.026,184.927 693.026,93.957 " />
<polygon stroke="black" stroke-width="1" fill="rgb(204, 204, 204)" fill-opacity="0.25" points="827.004,675.772 836.073,675.772 836.073,666.672 827.004,666.672 " />
<polygon stroke="black" stroke-width="1" fill="rgb(204, 204, 204)" fill-opacity="0.25" points="153.155,650.872 0.000,650.872 0.000,659.973 163.549,659.973 125.933,377.851 -0.000,377.852 -0.000,386.952 117.965,386.952 " />
<polygon stroke="black" stroke-width="1" fill="rgb(204, 204, 204)" fill-opacity="0.25" points="1014.914,325.447 1005.817,325.428 1005.817,478.145 1014.914,478.165 " />
<polygon stroke="black" stroke-width="1" fill="rgb(204, 204, 204)" fill-opacity="0.25" points="996.815,305.194 1005.915,305.194 1005.915,39.267 996.815,39.267 " />
<polygon stroke="black" stroke-width="1" fill="rgb(204, 204, 204)" fill-opacity="0.25" points="1014.903,660.121 1024.000,660.101 1024.000,542.473 1014.903,542.492 " />
<polygon stroke="black" stroke-width="1" fill="rgb(204, 204, 204)" fill-opacity="0.25" points="327.099,650.872 327.099,659.973 453.032,659.973 490.648,377.851 327.099,377.851 327.099,386.952 480.253,386.952 445.064,650.872 " />
<polygon stroke="black" stroke-width="1" fill="rgb(204, 204, 204)" fill-opacity="0.25" points="1008.366,1023.981 1017.463,1024.000 1017.463,898.427 1008.366,898.407 " />
<polygon stroke="black" stroke-width="1" fill="rgb(204, 204, 204)" fill-opacity="0.25" points="996.815,20.593 987.714,20.593 987.714,305.194 996.815,305.194 " />
<polygon stroke="black" stroke-width="1" fill="rgb(204, 204, 204)" fill-opacity="0.25" points="709.819,21.826 700.722,21.845 700.722,184.928 709.819,184.908 " />
<polygon stroke="black" stroke-width="1" fill="rgb(204, 204, 204)" fill-opacity="0.25" points="845.143,675.772 854.212,675.772 854.212,666.672 845.143,666.672 " />
<polygon stroke="black" stroke-width="1" fill="rgb(204, 204, 204)" fill-opacity="0.25" points="308.266,368.751 299.732,368.751 299.732,377.852 308.266,377.852 " />
<polygon stroke="black" stroke-width="1" fill="rgb(204, 204, 204)" fill-opacity="0.25" points="990.771,1024.000 999.280,1023.982 999.280,669.196 990.771,669.214 " />
<polygon stroke="black" stroke-width="1" fill="rgb(204, 204, 204)" fill-opacity="0.25" points="987.683,660.121 996.716,660.121 996.716,305.194 987.683,305.194 " />
<polygon stroke="black" stroke-width="1" fill="rgb(204, 204, 204)" fill-opacity="0.25" points="291.222,377.833 299.732,377.852 299.732,23.065 291.222,23.047 " />
<polygon stroke="black" stroke-width="1" fill="rgb(204, 204, 204)" fill-opacity="0.25" points="978.613,660.121 987.683,660.121 987.683,305.194 978.613,305.194 " />
<polygon stroke="black" stroke-width="1" fill="rgb(204, 204, 204)" fill-opacity="0.25" points="299.732,368.751 308.266,368.751 308.266,359.650 299.732,359.650 " />
<polygon stroke="black" stroke-width="1" fill="rgb(204, 204, 204)" fill-opacity="0.25" points="674.165,370.537 709.817,377.659 709.819,192.050 674.165,184.928 " />
<polygon stroke="black" stroke-width="1" fill="rgb(204, 204, 204)" fill-opacity="0.25" points="854.306,712.176 854.306,675.774 845.205,675.774 845.205,712.176 " />
<polygon stroke="black" stroke-width="1" fill="rgb(204, 204, 204)" fill-opacity="0.25" points="878.491,202.670 878.491,19.693 869.405,19.605 869.405,202.581 " />
<polygon stroke="black" stroke-width="1" fill="rgb(204, 204, 204)" fill-opacity="0.25" points="827.004,712.176 827.004,748.580 836.105,748.580 836.105,712.176 " />
<polygon stroke="black" stroke-width="1" fill="rgb(204, 204, 204)" fill-opacity="0.25" points="887.577,19.694 887.577,202.670 896.662,202.581 896.662,19.605 " />
<polygon stroke="black" stroke-width="1" fill="rgb(204, 204, 204)" fill-opacity="0.25" points="490.650,659.973 526.342,652.834 526.342,467.216 490.648,474.355 " />
<polygon stroke="black" stroke-width="1" fill="rgb(204, 204, 204)" fill-opacity="0.25" points="954.367,748.563 954.367,1023.999 972.569,1024.000 972.569,748.563 " />
<polygon stroke="black" stroke-width="1" fill="rgb(204, 204, 204)" fill-opacity="0.25" points="638.510,102.562 547.504,102.562 547.504,377.659 638.511,377.659 " />
<polygon stroke="black" stroke-width="1" fill="rgb(204, 204, 204)" fill-opacity="0.25" points="933.064,202.641 933.064,111.670 914.892,111.699 914.892,202.670 " />
<polygon stroke="black" stroke-width="1" fill="rgb(204, 204, 204)" fill-opacity="0.25" points="91.007,102.432 91.007,377.852 182.014,377.852 182.014,102.432 " />
<polygon stroke="black" stroke-width="1" fill="rgb(204, 204, 204)" fill-opacity="0.25" points="978.568,384.683 978.568,109.246 960.367,109.247 960.367,384.683 " />
<polygon stroke="black" stroke-width="1" fill="rgb(204, 204, 204)" fill-opacity="0.25" points="638.510,93.928 638.510,184.898 656.682,184.928 656.682,93.957 " />
<polygon stroke="black" stroke-width="1" fill="rgb(204, 204, 204)" fill-opacity="0.25" points="836.073,675.772 845.143,675.772 845.143,666.672 836.073,666.672 " />
<polygon stroke="black" stroke-width="1" fill="rgb(204, 204, 204)" fill-opacity="0.25" points="163.549,377.852 163.549,386.952 281.515,386.952 316.704,650.872 163.549,650.872 163.549,659.973 327.099,659.973 289.482,377.851 " />
<polygon stroke="black" stroke-width="1" fill="rgb(204, 204, 204)" fill-opacity="0.25" points="1008.378,842.044 1017.475,842.024 1017.475,724.396 1008.378,724.415 " />
<polygon stroke="black" stroke-width="1" fill="rgb(204, 204, 204)" fill-opacity="0.25" points="711.053,377.659 547.504,377.659 547.504,386.760 700.658,386.760 665.469,650.680 547.504,650.680 547.504,659.780 673.437,659.780 " />
<polygon stroke="black" stroke-width="1" fill="rgb(204, 204, 204)" fill-opacity="0.25" points="1008.378,678.942 999.281,678.962 999.281,842.044 1008.378,842.024 " />
<polygon stroke="black" stroke-width="1" fill="rgb(204, 204, 204)" fill-opacity="0.25" points="987.714,20.593 978.613,20.593 978.613,305.194 987.714,305.194 " />
<polygon stroke="black" stroke-width="1" fill="rgb(204, 204, 204)" fill-opacity="0.25" points="1005.915,152.438 1015.012,152.457 1015.012,26.884 1005.915,26.865 " />
<polygon stroke="black" stroke-width="1" fill="rgb(204, 204, 204)" fill-opacity="0.25" points="854.212,675.772 863.282,675.772 863.282,666.672 854.212,666.672 " />
<polygon stroke="black" stroke-width="1" fill="rgb(204, 204, 204)" fill-opacity="0.25" points="1015.012,152.477 1005.915,152.457 1005.915,305.175 1015.012,305.194 " />
<polygon stroke="black" stroke-width="1" fill="rgb(204, 204, 204)" fill-opacity="0.25" points="996.716,660.121 1005.817,660.121 1005.817,394.194 996.716,394.194 " />
<polygon stroke="black" stroke-width="1" fill="rgb(204, 204, 204)" fill-opacity="0.25" points="960.412,384.683 960.412,660.120 978.613,660.121 978.613,384.684 " />
<polygon stroke="black" stroke-width="1" fill="rgb(204, 204, 204)" fill-opacity="0.25" points="960.412,384.683 869.405,384.683 869.405,659.780 960.412,659.780 " />
<polygon stroke="black" stroke-width="1" fill="rgb(204, 204, 204)" fill-opacity="0.25" points="936.183,750.957 936.183,659.986 918.011,660.016 918.011,750.986 " />
<polygon stroke="black" stroke-width="1" fill="rgb(204, 204, 204)" fill-opacity="0.25" points="-0.000,102.432 0.000,377.852 91.007,377.852 91.007,102.432 " />
<polygon stroke="black" stroke-width="1" fill="rgb(204, 204, 204)" fill-opacity="0.25" points="990.770,1023.999 990.770,748.563 972.569,748.563 972.569,1024.000 " />
<polygon stroke="black" stroke-width="1" fill="rgb(204, 204, 204)" fill-opacity="0.25" points="918.011,750.986 918.011,841.957 936.182,841.986 936.182,751.016 " />
<polygon stroke="black" stroke-width="1" fill="rgb(204, 204, 204)" fill-opacity="0.25" points="896.662,20.714 896.662,202.655 905.748,202.670 905.748,20.728 " />
<polygon stroke="black" stroke-width="1" fill="rgb(204, 204, 204)" fill-opacity="0.25" points="905.806,384.683 942.165,384.683 942.165,202.670 905.806,202.670 " />
<polygon stroke="black" stroke-width="1" fill="rgb(204, 204, 204)" fill-opacity="0.25" points="836.105,712.176 836.105,675.772 827.004,675.773 827.004,712.176 " />
<polygon stroke="black" stroke-width="1" fill="rgb(204, 204, 204)" fill-opacity="0.25" points="942.149,202.655 942.149,20.714 933.064,20.728 933.064,202.670 " />
<polygon stroke="black" stroke-width="1" fill="rgb(204, 204, 204)" fill-opacity="0.25" points="836.105,712.176 836.105,748.580 845.206,748.580 845.206,712.177 " />
<polygon stroke="black" stroke-width="1" fill="rgb(204, 204, 204)" fill-opacity="0.25" points="869.405,384.683 905.806,384.683 905.806,202.670 869.405,202.670 " />
<polygon stroke="black" stroke-width="1" fill="rgb(204, 204, 204)" fill-opacity="0.25" points="999.280,842.044 999.280,1023.985 1008.366,1024.000 1008.366,842.058 " />
<polygon stroke="black" stroke-width="1" fill="rgb(204, 204, 204)" fill-opacity="0.25" points="918.011,1024.000 954.367,1024.000 954.367,841.986 918.011,841.986 " />
<polygon stroke="black" stroke-width="1" fill="rgb(204, 204, 204)" fill-opacity="0.25" points="863.407,712.176 863.407,675.774 854.306,675.774 854.306,712.176 " />
<polygon stroke="black" stroke-width="1" fill="rgb(204, 204, 204)" fill-opacity="0.25" points="1014.903,660.106 1014.903,478.164 1005.817,478.179 1005.817,660.121 " />
<polygon stroke="black" stroke-width="1" fill="rgb(204, 204, 204)" fill-opacity="0.25" points="854.307,712.178 854.307,748.580 863.407,748.580 863.407,712.178 " />
<polygon stroke="black" stroke-width="1" fill="rgb(204, 204, 204)" fill-opacity="0.25" points="490.648,274.460 527.047,274.460 527.047,92.447 490.648,92.447 " />
<polygon stroke="black" stroke-width="1" fill="rgb(204, 204, 204)" fill-opacity="0.25" points="275.420,1024.000 547.504,1024.000 547.504,659.973 275.420,659.973 " />
<polygon stroke="black" stroke-width="1" fill="rgb(204, 204, 204)" fill-opacity="0.25" points="711.053,659.780 869.405,659.780 833.002,386.760 711.053,386.760 " />
<polygon stroke="black" stroke-width="1" fill="rgb(204, 204, 204)" fill-opacity="0.25" points="705.403,1024.000 705.403,660.117 547.504,659.780 547.504,1023.663 " />
<polygon stroke="black" stroke-width="1" fill="rgb(204, 204, 204)" fill-opacity="0.25" points="711.053,113.739 711.053,386.760 833.002,386.760 869.405,113.739 " />
<polygon stroke="black" stroke-width="1" fill="rgb(204, 204, 204)" fill-opacity="0.25" points="827.004,1023.741 827.004,659.858 705.403,660.117 705.403,1024.000 " />
<polygon stroke="black" stroke-width="1" fill="rgb(204, 204, 204)" fill-opacity="0.25" points="0.000,1024.000 275.420,1024.000 275.420,659.973 0.000,659.973 " />

</svg>
